<svg xmlns="http://www.w3.org/2000/svg" viewBox="0 0 80 80"><defs><clipPath id="c"><circle cx="40" cy="40" r="40"/></clipPath></defs><g clip-path="url(#c)"><path fill="#eee2d9" d="M0 0h80v80H0z"/><path d="M19 35c0-18 7-25 21-25s23 10 23 27l3 29H16Z" fill="#65524a"/><path d="M9 83c2-20 13-28 31-28s29 8 31 28" fill="#d0bba9"/><path d="M33 47h14v14q-7 10-14 0" fill="#d7ab90"/><ellipse cx="40" cy="33" rx="16" ry="21" fill="#e6bea3"/><path d="M22 33c-4-16 7-25 19-24 13 0 22 12 18 29-5-5-10-14-12-21-5 8-14 11-25 12" fill="#65524a"/><path d="M29 35h2m17 0h2" stroke="#58473f" stroke-width="2" stroke-linecap="round"/><path d="M36 45q4 3 8 0" fill="none" stroke="#ad7768" stroke-width="1.6" stroke-linecap="round"/><path d="m32 58 8 11 8-11" fill="#f5eee5"/><circle cx="24" cy="42" r="2" fill="#d6c69f"/><circle cx="56" cy="42" r="2" fill="#d6c69f"/></g></svg>
